<svg width="220" height="147" viewBox="0 0 220 147" fill="none" xmlns="http://www.w3.org/2000/svg">
<path d="M88.7948 8.04745C88.7948 12.4919 85.375 20.9234 81.1565 20.9234C76.938 20.9234 73.5182 12.4919 73.5182 8.04745C73.5182 3.60296 76.938 0 81.1565 0C85.375 0 88.7948 3.60296 88.7948 8.04745Z" fill="white"/>
<path d="M144.172 8.04745C144.172 12.4919 140.752 20.9234 136.534 20.9234C132.315 20.9234 128.896 12.4919 128.896 8.04745C128.896 3.60296 132.315 0 136.534 0C140.752 0 144.172 3.60296 144.172 8.04745Z" fill="white"/>
<path d="M179.26 117.618C173.273 117.707 167.504 115.401 163.22 111.208C158.937 107.015 156.49 101.277 156.419 95.2578C156.348 89.2384 158.658 83.4302 162.841 79.111C167.023 74.7917 172.736 72.3152 178.723 72.2261L178.991 94.9222L179.26 117.618Z" fill="#FF3131"/>
<path d="M39.4591 69.8578C45.4943 69.8484 51.2852 72.3234 55.558 76.7383C59.8308 81.1533 62.2354 87.1465 62.243 93.3996C62.2505 99.6527 59.8603 105.653 55.5981 110.082C51.336 114.51 45.551 117.003 39.5159 117.012L39.4875 93.4351L39.4591 69.8578Z" fill="#FF3131"/>
<path d="M34.9262 146.961C30.3483 146.966 25.8144 145.973 21.5834 144.039C17.3523 142.104 13.5069 139.266 10.2668 135.686C7.0267 132.107 4.45528 127.855 2.69939 123.176C0.943497 118.496 0.0375095 113.479 0.0331585 108.411C0.0288075 103.344 0.926179 98.3246 2.67403 93.6409C4.42189 88.9571 6.986 84.7002 10.22 81.1133C13.4539 77.5264 17.2944 74.6797 21.5222 72.7357C25.7499 70.7917 30.2821 69.7885 34.8599 69.7834L34.8931 108.372L34.9262 146.961Z" fill="#FF3131"/>
<path d="M183.886 72.3355C188.475 72.2771 193.028 73.1791 197.287 74.99C201.545 76.801 205.425 79.4854 208.706 82.89C211.986 86.2947 214.603 90.3528 216.405 94.8328C218.208 99.3128 219.162 104.127 219.213 109C219.264 113.874 218.41 118.711 216.701 123.235C214.992 127.76 212.461 131.884 209.253 135.371C206.044 138.858 202.221 141.641 198.001 143.56C193.782 145.479 189.248 146.497 184.66 146.555L184.273 109.445L183.886 72.3355Z" fill="#FF3131"/>
<path d="M166.132 55.259C166.132 84 141.125 107.299 110.277 107.299C79.4296 107.299 54.4226 84 54.4226 55.259C54.4226 26.5181 79.4296 20.3868 110.277 20.3868C141.125 20.3868 166.132 26.5181 166.132 55.259Z" fill="#FF3131"/>
</svg>
